<svg xmlns="http://www.w3.org/2000/svg" viewBox="0 0 1400 900" role="img" aria-label="Visual abstracte LDAP i sistemes">
  <defs>
    <linearGradient id="g" x1="0" x2="1" y1="0" y2="1"><stop stop-color="#082f63"/><stop offset=".55" stop-color="#1458b8"/><stop offset="1" stop-color="#06b6d4"/></linearGradient>
    <radialGradient id="r1" cx="20%" cy="18%" r="60%"><stop stop-color="#67e8f9" stop-opacity=".55"/><stop offset="1" stop-color="#67e8f9" stop-opacity="0"/></radialGradient>
    <radialGradient id="r2" cx="80%" cy="70%" r="70%"><stop stop-color="#ffffff" stop-opacity=".28"/><stop offset="1" stop-color="#ffffff" stop-opacity="0"/></radialGradient>
    <filter id="blur"><feGaussianBlur stdDeviation="18"/></filter>
  </defs>
  <rect width="1400" height="900" fill="url(#g)"/>
  <rect width="1400" height="900" fill="url(#r1)"/>
  <rect width="1400" height="900" fill="url(#r2)"/>
  <g opacity=".85">
    <rect x="155" y="220" width="470" height="310" rx="42" fill="#fff" opacity=".16" stroke="#fff" stroke-opacity=".38" stroke-width="3"/>
    <rect x="190" y="255" width="400" height="34" rx="14" fill="#fff" opacity=".48"/>
    <rect x="190" y="325" width="360" height="20" rx="10" fill="#fff" opacity=".28"/><rect x="190" y="370" width="315" height="20" rx="10" fill="#fff" opacity=".24"/><rect x="190" y="415" width="380" height="20" rx="10" fill="#fff" opacity=".22"/>
    <rect x="720" y="165" width="470" height="240" rx="42" fill="#fff" opacity=".15" stroke="#fff" stroke-opacity=".35" stroke-width="3"/>
    <rect x="755" y="200" width="400" height="34" rx="14" fill="#fff" opacity=".44"/>
    <rect x="755" y="270" width="330" height="20" rx="10" fill="#fff" opacity=".26"/><rect x="755" y="315" width="365" height="20" rx="10" fill="#fff" opacity=".22"/>
    <rect x="710" y="470" width="540" height="250" rx="42" fill="#fff" opacity=".14" stroke="#fff" stroke-opacity=".32" stroke-width="3"/>
    <rect x="745" y="505" width="450" height="34" rx="14" fill="#fff" opacity=".42"/>
    <rect x="745" y="575" width="400" height="20" rx="10" fill="#fff" opacity=".25"/><rect x="745" y="620" width="315" height="20" rx="10" fill="#fff" opacity=".22"/>
  </g>
  <g fill="none" stroke="#fff" stroke-opacity=".45" stroke-width="4"><path d="M375 390 515 310 820 300 975 250 1065 575 900 625 1120 640"/></g>
  <g fill="#fff" opacity=".9"><circle cx="375" cy="390" r="10"/><circle cx="515" cy="310" r="10"/><circle cx="820" cy="300" r="10"/><circle cx="975" cy="250" r="10"/><circle cx="1065" cy="575" r="10"/><circle cx="900" cy="625" r="10"/><circle cx="1120" cy="640" r="10"/></g>
</svg>
